<?xml version="1.0" encoding="utf-8"?>
<!-- Generator: Adobe Illustrator 22.1.0, SVG Export Plug-In . SVG Version: 6.00 Build 0)  -->
<svg version="1.1" id="Capa_1" xmlns="http://www.w3.org/2000/svg" xmlns:xlink="http://www.w3.org/1999/xlink" x="0px" y="0px"
	 viewBox="0 0 152 65.1" style="enable-background:new 0 0 152 65.1;" xml:space="preserve">
<style type="text/css">
	.st0{fill:none;}
	.st1{fill:#2F7338;}
	.st2{fill:#85BB40;}
	.st3{fill:#BFC630;}
	.st4{fill:#009748;}
	.st5{fill:#8ABF45;}
	.st6{fill:#13A654;}
	.st7{fill:#3D7F3C;}
	.st8{fill:#08A554;}
	.st9{fill:#91BF3F;}
</style>
<title>Logo-ica</title>
<g id="Capa_2_1_">
	<g id="Capa_1-2">
		<rect x="0" class="st0" width="152" height="65.1"/>
		<path class="st1" d="M0.3,55.6h1.3v7H0.3V55.6z"/>
		<path class="st1" d="M2.8,57.4h1.1V58l0,0c0.3-0.5,0.9-0.9,1.5-0.8c1.1,0,1.6,0.9,1.6,2v3.3H5.9v-2.8c0-0.6,0-1.5-0.8-1.5
			S4,59.3,4,60v2.5H2.8V57.4z"/>
		<path class="st1" d="M11.1,58.5c-0.3-0.1-0.7-0.2-1.1-0.2c-0.3,0-0.7,0.1-0.7,0.6c0,0.8,2.1,0.3,2.1,2.2c0,1.2-1,1.7-2,1.7
			c-0.5,0-0.9-0.1-1.4-0.2l0.1-1.1c0.4,0.2,0.8,0.3,1.2,0.3c0.3,0,0.8-0.1,0.8-0.6c0-1-2.1-0.3-2.1-2.2c0-0.9,0.7-1.6,1.6-1.6
			c0.1,0,0.1,0,0.2,0c0.4,0,0.9,0.1,1.3,0.2L11.1,58.5z"/>
		<path class="st1" d="M12.7,58.4h-0.9v-1h0.9v-1l1.2-0.4v1.5H15v1h-1.1v2.4c0,0.4,0.1,0.8,0.6,0.8c0.2,0,0.4,0,0.5-0.1v1.1
			c-0.3,0.1-0.6,0.1-0.9,0.1c-0.9,0-1.5-0.7-1.5-1.7L12.7,58.4z"/>
		<path class="st1" d="M15.8,55.2h1.2v1.3h-1.2V55.2z M15.8,57.4h1.2v5.2h-1.2V57.4z"/>
		<path class="st1" d="M18.7,58.4h-0.9v-1h0.9v-1l1.2-0.4v1.5H21v1h-1.1v2.4c0,0.4,0.1,0.8,0.6,0.8c0.2,0,0.4,0,0.5-0.1v1.1
			c-0.3,0.1-0.6,0.1-0.9,0.1c-1,0-1.5-0.7-1.5-1.7L18.7,58.4z"/>
		<path class="st1" d="M26.1,62.5H25v-0.7l0,0c-0.3,0.5-0.9,0.8-1.5,0.8c-1.1,0-1.6-0.9-1.6-2v-3.3H23v2.8c0,0.6,0,1.5,0.8,1.5
			s1.1-1.1,1.1-1.7v-2.5h1.2L26.1,62.5z"/>
		<path class="st1" d="M27.7,58.4h-0.9v-1h0.9v-1l1.2-0.4v1.5H30v1h-1.1v2.4c0,0.4,0.1,0.8,0.6,0.8c0.2,0,0.4,0,0.5-0.1v1.1
			c-0.3,0.1-0.6,0.1-0.9,0.1c-1,0-1.5-0.7-1.5-1.7L27.7,58.4z"/>
		<path class="st1" d="M33,57.3c1.4,0,2.5,1.1,2.5,2.5c0,0.1,0,0.2,0,0.3c0.1,1.3-0.9,2.5-2.2,2.7c-1.3,0.1-2.5-0.9-2.7-2.2
			c0-0.1,0-0.3,0-0.4c-0.2-1.4,0.8-2.6,2.1-2.8C32.8,57.3,32.9,57.3,33,57.3z M33,61.6c0.9,0,1.2-0.9,1.2-1.8s-0.4-1.5-1.2-1.5
			s-1.2,0.8-1.2,1.5C31.8,60.6,32.1,61.6,33,61.6z"/>
		<path class="st1" d="M43.6,62.4c-0.5,0.1-0.9,0.2-1.4,0.2c-1.7,0.2-3.3-1.1-3.5-2.8c0-0.2,0-0.4,0-0.7c0-2.4,1.3-3.7,3.5-3.7
			c0.5,0,1,0.1,1.4,0.3l-0.1,1.2c-0.4-0.3-0.9-0.4-1.4-0.4c-1.3,0-2.1,1.1-2.1,2.5c-0.2,1.2,0.7,2.3,1.9,2.5c0.1,0,0.2,0,0.2,0
			c0.5,0,0.9-0.1,1.4-0.3L43.6,62.4z"/>
		<path class="st1" d="M46.5,57.3c1.4,0,2.5,1.1,2.4,2.5c0,0.1,0,0.2,0,0.3c0.1,1.3-0.8,2.5-2.2,2.7s-2.5-0.8-2.7-2.2
			c0-0.2,0-0.4,0-0.5c-0.2-1.4,0.8-2.6,2.1-2.8C46.3,57.3,46.4,57.3,46.5,57.3z M46.5,61.6c0.9,0,1.2-0.9,1.2-1.8s-0.4-1.5-1.2-1.5
			s-1.2,0.7-1.2,1.5S45.6,61.6,46.5,61.6z"/>
		<path class="st1" d="M49.9,55h1.2v7.5h-1.2V55z"/>
		<path class="st1" d="M54.5,57.3c1.4,0,2.5,1.1,2.4,2.5c0,0.1,0,0.2,0,0.3c0.1,1.3-0.9,2.5-2.2,2.7c-1.3,0.1-2.5-0.9-2.7-2.2
			c0-0.1,0-0.3,0-0.4c-0.2-1.4,0.8-2.6,2.1-2.8C54.3,57.3,54.4,57.3,54.5,57.3z M54.5,61.6c0.9,0,1.2-0.9,1.2-1.8s-0.4-1.5-1.2-1.5
			s-1.2,0.8-1.2,1.5C53.4,60.6,53.6,61.6,54.5,61.6z"/>
		<path class="st1" d="M57.9,57.4H59v0.7l0,0c0.3-0.5,0.8-0.8,1.4-0.8c0.6,0,1.2,0.3,1.4,0.9c0.3-0.6,0.8-0.9,1.4-0.9
			c1.1,0,1.5,0.9,1.5,2v3.3h-1.2v-3.1c0-0.5,0-1.2-0.7-1.2s-0.9,1.1-0.9,1.7v2.5h-1.3v-3.1c0-0.5,0-1.2-0.7-1.2s-0.9,1.1-0.9,1.7
			v2.5h-1.2V57.4z"/>
		<path class="st1" d="M65.9,55h1.2v3l0,0c0.3-0.5,0.8-0.8,1.4-0.8c1.4,0,1.9,1.3,1.9,2.7c0,1.4-0.5,2.7-1.9,2.7
			c-0.6,0-1.1-0.3-1.4-0.8l0,0v0.6h-1.2V55z M68.2,61.6c0.8,0,1-1,1-1.7s-0.2-1.6-1-1.6s-1.1,0.9-1.1,1.6S67.4,61.6,68.2,61.6
			L68.2,61.6z"/>
		<path class="st1" d="M71.5,55.2h1.2v1.3h-1.2V55.2z M71.5,57.4h1.2v5.2h-1.2V57.4z"/>
		<path class="st1" d="M74.1,57.7c0.5-0.2,1.1-0.4,1.6-0.4c1.4,0,2,0.7,2,2.2v0.7c0,0.5,0,0.9,0,1.3s0,0.8,0.1,1.2h-1
			c0-0.3,0-0.6-0.1-0.8l0,0c-0.3,0.5-0.8,0.9-1.4,0.9c-0.8,0.1-1.6-0.6-1.6-1.4c0,0,0-0.1,0-0.1c-0.1-0.6,0.3-1.2,0.8-1.5
			c0.5-0.2,1-0.3,1.6-0.3h0.6c0-0.8-0.3-1.1-1-1.1c-0.5,0-1,0.2-1.4,0.6L74.1,57.7z M75.6,61.7c0.3,0,0.7-0.2,0.8-0.5
			c0.2-0.3,0.3-0.7,0.2-1h-0.5c-0.5,0-1.3,0.1-1.3,0.9C74.8,61.5,75.1,61.7,75.6,61.7L75.6,61.7z"/>
		<path class="st1" d="M78.9,57.4h1.2V58l0,0c0.3-0.5,0.9-0.8,1.5-0.8c1.1,0,1.6,0.9,1.6,2v3.3H82v-2.8c0-0.6,0-1.5-0.8-1.5
			s-1.1,1-1.1,1.7v2.5h-1.2V57.4z"/>
		<path class="st1" d="M86.6,57.3c1.4,0,2.5,1.1,2.4,2.5c0,0.1,0,0.2,0,0.3c0.1,1.3-0.8,2.5-2.2,2.7c-1.3,0.1-2.5-0.8-2.7-2.2
			c0-0.2,0-0.4,0-0.5c-0.2-1.4,0.8-2.6,2.1-2.8C86.4,57.3,86.5,57.3,86.6,57.3z M86.6,61.6c0.9,0,1.2-0.9,1.2-1.8s-0.4-1.5-1.2-1.5
			s-1.2,0.8-1.2,1.5C85.4,60.6,85.6,61.6,86.6,61.6z"/>
		<path class="st1" d="M94.4,55.6h1.4l2.5,7h-1.4L96.3,61h-2.6l-0.6,1.6h-1.3L94.4,55.6z M95.1,57L95.1,57l-0.9,2.9H96L95.1,57z"/>
		<path class="st1" d="M103.2,57.4V62c0,1.4-0.5,2.7-2.4,2.7c-0.6,0-1.1-0.1-1.6-0.4l0.1-1.1c0.4,0.3,0.9,0.4,1.3,0.5
			c1.3,0,1.4-1.1,1.4-2l0,0c-0.3,0.5-0.8,0.8-1.4,0.8c-1.4,0-1.9-1.2-1.9-2.6s0.6-2.7,2-2.7c0.6,0,1.2,0.3,1.4,0.8l0,0v-0.7
			L103.2,57.4z M102,59.9c0-0.9-0.3-1.6-1-1.6s-1.1,0.8-1.1,1.6c0,0.8,0.3,1.6,1,1.6S102,60.8,102,59.9z"/>
		<path class="st1" d="M104.5,57.4h1.1v1.2l0,0c0-0.5,0.5-1.3,1.3-1.3c0.1,0,0.3,0,0.4,0v1.3c-0.2-0.1-0.4-0.1-0.6-0.1
			c-1,0-1,1.3-1,2.1v1.9h-1.2L104.5,57.4z"/>
		<path class="st1" d="M110,57.3c1.4,0,2.5,1.1,2.5,2.5c0,0.1,0,0.2,0,0.3c0.1,1.3-0.9,2.5-2.2,2.7c-1.3,0.1-2.5-0.9-2.7-2.2
			c0-0.1,0-0.3,0-0.4c-0.2-1.4,0.8-2.6,2.1-2.8C109.8,57.3,109.9,57.3,110,57.3z M110,61.6c0.9,0,1.2-0.9,1.2-1.8s-0.4-1.5-1.2-1.5
			s-1.2,0.8-1.2,1.5C108.8,60.6,109,61.6,110,61.6z"/>
		<path class="st1" d="M113.3,57.4h1.2v0.7l0,0c0.3-0.5,0.8-0.9,1.4-0.8c1.4,0,2,1.3,2,2.7c0,1.4-0.5,2.7-2,2.7
			c-0.5,0-1.1-0.2-1.4-0.7l0,0v2.7h-1.2V57.4z M114.6,60c0,0.7,0.3,1.7,1.1,1.7s1-1,1-1.7s-0.2-1.6-1-1.6S114.6,59.2,114.6,60z"/>
		<path class="st1" d="M122.6,62.3c-0.5,0.3-1,0.4-1.6,0.4c-1.5,0-2.4-1-2.4-2.7c0-1.5,0.7-2.7,2.1-2.7c1.7,0,2.2,1.3,2.2,3.1h-3.2
			c0,0.7,0.5,1.3,1.2,1.3c0,0,0.1,0,0.1,0c0.6,0,1.1-0.2,1.6-0.5V62.3z M121.8,59.5c0-0.7-0.3-1.2-1-1.2s-1,0.5-1.1,1.2H121.8z"/>
		<path class="st1" d="M126.9,58.5c-0.3-0.1-0.5-0.2-0.8-0.2c-0.8,0-1.2,0.7-1.2,1.6c0,1,0.4,1.7,1.3,1.7c0.3,0,0.6-0.1,0.9-0.2
			l0.1,1.1c-0.4,0.1-0.8,0.2-1.2,0.2c-1.5,0-2.3-1.2-2.3-2.7s0.8-2.7,2.2-2.7c0.4,0,0.8,0,1.2,0.2L126.9,58.5z"/>
		<path class="st1" d="M132.1,62.5H131v-0.7l0,0c-0.3,0.5-0.9,0.8-1.5,0.8c-1.1,0-1.6-0.9-1.6-2v-3.3h1.2v2.8c0,0.6,0,1.5,0.8,1.5
			s1.1-1.1,1.1-1.7v-2.5h1.2L132.1,62.5z"/>
		<path class="st1" d="M133.6,57.7c0.5-0.2,1.1-0.4,1.6-0.4c1.4,0,2,0.7,2,2.2v0.7c0,0.5,0,0.9,0,1.3s0,0.8,0,1.2h-1.1
			c0-0.3-0.1-0.5-0.1-0.8l0,0c-0.3,0.5-0.8,0.9-1.4,0.9c-0.9,0-1.6-0.7-1.6-1.6c0-0.6,0.3-1.1,0.8-1.4c0.5-0.2,1-0.3,1.6-0.3h0.7
			c0-0.8-0.3-1.1-1.1-1.1c-0.5,0-1,0.2-1.4,0.6L133.6,57.7z M135,61.7c0.3,0,0.7-0.2,0.9-0.5c0.2-0.3,0.3-0.7,0.3-1.1h-0.5
			c-0.5,0-1.4,0.1-1.4,0.9C134.2,61.5,134.6,61.7,135,61.7L135,61.7z"/>
		<path class="st1" d="M138.4,57.4h1.1v1.2l0,0c0-0.5,0.6-1.3,1.3-1.3c0.1,0,0.3,0,0.4,0v1.3c-0.2-0.1-0.4-0.1-0.5-0.1
			c-1,0-1,1.3-1,2.1v1.9h-1.2L138.4,57.4z"/>
		<path class="st1" d="M141.9,55.2h1.2v1.3h-1.2V55.2z M141.9,57.4h1.2v5.2h-1.2V57.4z"/>
		<path class="st1" d="M146.5,57.3c1.4,0,2.5,1.1,2.5,2.5c0,0.1,0,0.2,0,0.3c0.1,1.3-0.9,2.5-2.2,2.7c-1.3,0.1-2.5-0.9-2.7-2.2
			c0-0.1,0-0.3,0-0.4c-0.2-1.4,0.8-2.6,2.1-2.8C146.3,57.3,146.4,57.3,146.5,57.3z M146.5,61.6c0.9,0,1.2-0.9,1.2-1.8
			s-0.4-1.5-1.2-1.5s-1.2,0.8-1.2,1.5C145.4,60.6,145.6,61.6,146.5,61.6z"/>
		<polygon class="st1" points="108.4,19.8 108.4,19.8 108.5,19.8 110,20.4 110.4,20.6 110.3,20.5 115.9,18.1 114.2,17.6 107.4,16.2 
			100.3,17.2 102.7,18.1 		"/>
		<polygon class="st2" points="113.9,17.5 121.7,15.4 111.3,15.4 107.4,16.2 107.4,16.2 114.2,17.6 113.8,17.5 		"/>
		<polygon class="st3" points="119.5,20.8 121.6,19.7 116.3,18.2 115.9,18.1 110.3,20.5 110.4,20.6 110.6,20.6 110.9,20.8 
			116.3,23.2 116.3,23.2 117.7,23.8 121.6,21.3 120.7,21.1 		"/>
		<polygon class="st4" points="124.5,14.6 121.7,15.4 113.9,17.5 113.8,17.5 114.2,17.6 115.9,18.1 116.3,18.2 121.6,19.7 
			122.1,19.4 131.6,14.2 		"/>
		<polygon class="st2" points="134,12.8 131.6,14.2 122.1,19.4 121.6,19.7 119.5,20.8 120.7,21.1 121.6,21.3 123.6,20.1 123.6,20.1 
			129,21 129.6,20.5 129.8,20.3 138.7,13.9 138.8,13.8 138.9,13.8 140.3,12.8 		"/>
		<polygon class="st3" points="138.6,22.9 138.2,23.3 138,23.5 132.3,22 126.9,26.9 127,26.9 128.1,27.3 134.8,29.5 133.8,30.6 
			133.4,30.9 135,31.4 142.8,23.8 141.3,23.6 		"/>
		<polygon class="st4" points="138.9,13.8 138.8,13.8 138.7,13.9 129.8,20.3 129.6,20.5 129,21 129.8,21.1 131.4,21.4 132.7,21.6 
			132.7,21.6 132.8,21.6 132.3,22 138,23.5 138.2,23.3 138.6,22.9 149,12.8 		"/>
		<polygon class="st1" points="92.2,24.5 97.7,21.9 91.4,17.6 84.2,19 92.1,26.9 94,26 93.3,25.4 		"/>
		<polygon class="st2" points="102.7,18.1 100.3,17.2 96.9,16 90.3,16.9 91.4,17.6 97.7,21.9 98.5,21.5 98.8,21.4 100.6,22.6 
			101.2,22.4 101.3,22.3 107.1,20.2 107.4,20.1 108.4,19.8 		"/>
		<polygon class="st3" points="107.5,27.4 107.4,27.3 107.4,27.3 102.8,24.1 100.8,22.8 100.8,22.8 100.8,22.8 100.6,22.7 
			100.5,22.6 100.6,22.6 98.8,21.4 98.5,21.5 97.7,21.9 92.2,24.5 93.3,25.4 94,26 100.7,32.1 101.3,31.7 		"/>
		<polygon class="st2" points="116.1,24.8 117.6,23.8 117.7,23.8 116.3,23.2 116.3,23.2 116.5,23.3 116.5,23.4 109.6,27.8 117.5,33 
			117.9,32.7 118.1,32.6 123.9,27.8 		"/>
		<polygon class="st5" points="107.4,27.3 107.4,27.3 107.5,27.4 107.5,27.4 		"/>
		<polygon class="st4" points="128.1,27.3 127,26.9 126.9,26.9 126.6,27.1 125.3,28.3 123.9,27.8 118.1,32.6 117.9,32.7 117.5,33 
			117.5,33 117.5,33 119.2,34.2 126,38.6 133.4,30.9 133.8,30.6 134.8,29.5 		"/>
		<polygon class="st1" points="132.7,21.6 132.7,21.6 131.4,21.4 129.8,21.1 129,21 123.6,20.1 123.6,20.1 121.6,21.3 117.7,23.8 
			117.6,23.8 116.1,24.8 123.9,27.8 125.3,28.3 126.6,27.1 126.9,26.9 132.3,22 132.8,21.6 		"/>
		<polygon class="st6" points="110.6,20.6 110.4,20.6 110.5,20.6 		"/>
		<polygon class="st4" points="116.3,23.2 110.9,20.8 110.6,20.6 110.5,20.6 110.4,20.6 110,20.4 108.5,19.8 108.4,19.8 108.4,19.8 
			107.4,20.1 107.1,20.2 101.3,22.3 101.2,22.4 100.6,22.6 100.5,22.6 100.6,22.7 100.8,22.8 100.8,22.8 100.8,22.8 102.8,24.1 
			107.4,27.3 107.5,27.4 107.6,27.3 108.1,27 108.3,26.9 108.3,26.9 109.6,27.8 116.5,23.4 116.5,23.3 		"/>
		<polygon class="st7" points="117.5,33 117.5,33 117.7,33.2 		"/>
		<polygon class="st3" points="126,38.6 119.2,34.2 118.1,33.4 110.7,41.4 120.1,51 129.9,41.2 		"/>
		<polygon class="st7" points="118.1,33.4 117.7,33.2 118.1,33.4 		"/>
		<polygon class="st1" points="117.7,33.2 117.5,33 109.6,27.8 108.3,26.9 108.3,26.9 108.1,27 107.6,27.3 107.5,27.4 107.5,27.4 
			101.3,31.7 101.5,32 110.7,41.5 110.7,41.4 118.1,33.4 		"/>
		<path class="st7" d="M101,25L101,25l-0.3,0.1L101,25c-0.3,0.1-0.5,0.2-0.7,0.3c-0.3,0.3,0.1,0.3,0.3,0.2s0.6-0.2,0.7-0.4
			S101.3,25,101,25"/>
		<path class="st7" d="M100.4,26.1h0.1c-0.5,0-0.5,1.1,0.2,0.9c0-0.1-0.1-0.3,0-0.4s0.3-0.1,0.3-0.3S100.6,26.1,100.4,26.1"/>
		<path class="st7" d="M99.6,25.5L99.6,25.5L99.6,25.5c-0.3,0.1-0.4,0.1-0.4,0.4s0,0.3,0.2,0.2c0.2-0.1,0.3-0.2,0.4-0.4
			C99.8,25.6,99.8,25.5,99.6,25.5"/>
		<path class="st7" d="M99.4,26.8c-0.1,0.1-0.2,0.2-0.3,0.3c-0.1,0.1-0.1,0.3-0.2,0.4c0,0.3,0.3,0.4,0.5,0.3
			C99.5,27.4,99.6,27,99.4,26.8"/>
		<path class="st7" d="M100.5,24.7l0.1-0.4c0-0.2-0.2-0.3-0.4-0.2h0.1c-0.4,0.3-0.7,1,0,0.7C100.4,24.8,100.4,24.9,100.5,24.7"/>
		<path class="st7" d="M98.3,25.8L98.3,25.8c-0.3,0.3-0.5,0.6-0.4,0.9c0.2,0,0.3-0.1,0.5-0.1c0-0.1,0.2-0.5,0.2-0.6
			S98.4,25.8,98.3,25.8"/>
		<path class="st8" d="M118,41.6c0-0.1-0.1-0.2-0.1-0.3s-0.4,0.1-0.5,0.2c-0.3,0.4,0.1,0.6,0.5,0.6s0.4,0,0.4-0.3
			S118.1,41.7,118,41.6"/>
		<path class="st8" d="M121.6,42.6c0-0.1,0.1-0.3,0-0.4c-0.1-0.2-0.3-0.2-0.5-0.2c-0.1,0.1-0.4,0.2-0.3,0.5s0.5,0.2,0.5,0.5
			C121.6,42.9,121.6,42.8,121.6,42.6"/>
		<path class="st8" d="M117.8,39.5c0.1,0,0.3,0.3,0.4,0.1c0-0.1,0-0.2,0-0.2c-0.1-0.2-0.3-0.4-0.5-0.5c-0.1,0-0.4,0.1-0.4,0.3
			C117.3,39.4,117.7,39.4,117.8,39.5"/>
		<path class="st8" d="M118.2,40.5c-0.1,0,0,0.2,0,0.3c0.1,0.3,0.1,0.4,0.4,0.5c0.1,0,0.1-0.4,0-0.5S118.4,40.5,118.2,40.5"/>
		<path class="st8" d="M119.6,41L119.6,41c-0.3-0.2-0.3,0.4-0.2,0.6s0.4,0.5,0.6,0.4c0.1-0.2,0.2-0.4,0.1-0.6
			C120,41.3,119.8,41.3,119.6,41"/>
		<path class="st8" d="M119.7,40c0-0.1,0-0.2-0.1-0.3c-0.1-0.2-0.3-0.4-0.5-0.6c-0.2,0.1-0.3,0.3-0.3,0.6c0.1,0.2,0.4,0.3,0.5,0.4
			S119.7,40.2,119.7,40"/>
		<path class="st8" d="M121.2,40.6c0.2,0,0.4,0.1,0.3-0.2s-0.4-0.3-0.7-0.3c-0.1,0-0.2,0-0.2,0.1c-0.1,0.2-0.1,0.3,0,0.5
			c0.1,0.2,0.1,0.2,0.2,0.1S121,40.6,121.2,40.6"/>
		<path class="st7" d="M117.5,29c-0.1,0-0.2,0.1-0.3,0.1c-0.2,0-0.3,0.2,0,0.6s0.3,0.3,0.4,0c0,0,0.1-0.3,0.1-0.3s0.2-0.1,0-0.3
			S117.5,29,117.5,29"/>
		<path class="st7" d="M115.4,28c0,0-0.1,0-0.1,0l0,0c-0.1,0-0.1,0.1-0.1,0.1c-0.3,0.2-0.2,0.5,0.1,0.9c0.1,0.1,0.1,0.3,0.3-0.1
			c0.1-0.2,0.2-0.4,0.2-0.6C115.7,28.1,115.6,28,115.4,28"/>
		<path class="st7" d="M118.4,27.8c-0.1,0-0.2,0-0.3,0c-0.4,0.1-0.4,0.6,0.2,0.6S118.9,28,118.4,27.8"/>
		<path class="st7" d="M116.5,27.2c0.4-0.1,0.9-0.5,0.2-0.6S116.1,27.4,116.5,27.2"/>
		<path class="st7" d="M117.1,28.7c0-0.2,0-0.5-0.1-0.7c-0.2-0.1-0.2,0-0.3,0h-0.1c-0.2,0-0.3,0.2-0.2,0.7c0.1,0.2,0.3,0.2,0.5,0.1
			C117,28.8,117,28.8,117.1,28.7"/>
		<path class="st7" d="M115.6,26.8c-0.1,0-0.1-0.7-0.6-0.1s0.5,0.7,0.8,0.3C115.8,27,115.7,26.9,115.6,26.8"/>
		<path class="st9" d="M127.5,22.9c-0.2-0.2-0.4-0.3-0.7-0.3c-0.1,0-0.1,0.1-0.1,0.1c0.2,0.2,0.3,0.4,0.6,0.5
			C127.5,23.3,127.5,23,127.5,22.9"/>
		<path class="st9" d="M125.6,22.3L125.6,22.3c-0.2,0-0.3,0.1-0.3,0.2s0.2,0.1,0.4,0.1C126.4,22.6,125.8,22.3,125.6,22.3"/>
		<path class="st9" d="M124.8,24.2c-0.1-0.1-0.1,0-0.2,0.1l0,0c-0.3,0.2,0,1.3,0.4,0.6C125,24.7,124.9,24.4,124.8,24.2"/>
		<path class="st9" d="M125.9,23.2L125.9,23.2l-0.2,0.1c-0.1,0.1-0.3,0.2-0.3,0.4c0,0.1,0.2,0.2,0.3,0.2c0.1,0,0.1,0,0.1-0.1
			C126,23.7,126.1,23.4,125.9,23.2"/>
		<path class="st9" d="M124.8,22.5h-0.2c-0.1,0-0.2,0.1-0.1,0.2s0.3,0,0.4,0C125.3,22.5,125,22.4,124.8,22.5"/>
		<path class="st9" d="M122.9,24.4c-0.2,0.2-0.4,0.4-0.3,0.6c0.1,0.3,0.6-0.4,0.7-0.7l0,0C123.1,24.3,123,24.4,122.9,24.4"/>
		<path class="st9" d="M123,23.4c0-0.1-0.1-0.1-0.2-0.1c-0.1,0-0.2,0-0.3,0.1c-0.3,0.3-0.6,1,0,0.7C122.7,24,123.1,23.7,123,23.4"/>
		<path class="st9" d="M123.8,22.7c-0.3,0.1-0.9,0.7-0.1,0.5c0.2-0.1,0.5-0.3,0.5-0.4S123.9,22.7,123.8,22.7"/>
		<path class="st9" d="M124.8,23c-0.3,0.1-0.8,1.1-0.2,0.7C124.8,23.6,125,23.1,124.8,23"/>
		<path class="st9" d="M126.3,16c-0.2,0-0.4,0-0.6,0.1c-0.3,0.1-0.2,0.3,0.1,0.4s0.4-0.1,0.5-0.2c0-0.1,0.1-0.1,0.1-0.2
			C126.4,16.1,126.3,16.1,126.3,16"/>
		<path class="st9" d="M120.8,16.6c-0.1,0.2,0.6,0,0.6-0.2l0,0l0,0C121.6,16.2,120.8,16.4,120.8,16.6"/>
		<path class="st9" d="M121.1,17.3c-0.4,0-0.7,0.1-1,0.4C120,17.9,120.7,17.6,121.1,17.3C121,17.3,121.1,17.3,121.1,17.3"/>
		<path class="st9" d="M120.7,16.9c-0.6,0.1-1.6,0.5-0.9,0.4c0.3-0.1,0.7-0.2,1-0.3C120.9,17,120.8,16.9,120.7,16.9"/>
		<path class="st9" d="M119.6,17c0.1,0,0.8-0.3,0.8-0.3c-0.1,0-0.1,0-0.2,0C119.9,16.8,119.5,17,119.6,17"/>
		<path class="st9" d="M121.8,16.5c0.1,0.1,0.4-0.1,0.6-0.2c0.1,0,0.1-0.1,0.2-0.1c0,0,0-0.1-0.1-0.1
			C122.1,16.2,121.7,16.4,121.8,16.5"/>
		<path class="st9" d="M122.6,17c-0.3-0.1-0.5-0.1-0.8,0c0,0-0.1,0.1-0.1,0.1c0,0.2,0.1,0.4,0.9,0C122.7,17.2,122.8,17,122.6,17"/>
		<path class="st9" d="M122.5,16.4c-0.4,0.1-0.4,0.2-0.4,0.3s0.6-0.1,0.8-0.3C122.8,16.4,122.6,16.4,122.5,16.4"/>
		<path class="st9" d="M124.9,16.4c0,0,0,0-0.1,0c-0.2,0-0.5,0.1-0.7,0.2c-0.1,0-0.1,0.1,0,0.1C124.4,16.8,125.3,16.6,124.9,16.4"/>
		<path class="st9" d="M123.7,15.8c-0.2,0-1,0.2-0.6,0.3C123.6,16,123.8,15.8,123.7,15.8"/>
		<path class="st9" d="M124.1,16.2C124.1,16.2,124.2,16.2,124.1,16.2c0.1-0.2-0.2-0.1-0.4,0s0,0.1,0.1,0.1s0.1,0,0.1,0
			C124,16.3,124.1,16.2,124.1,16.2"/>
		<path class="st9" d="M125.8,15.8c-0.3,0-0.6,0-0.9,0.2c0,0,0.1,0.1,0.2,0.1c0.1,0,0.3-0.1,0.4-0.1l0.3,0
			C125.8,15.9,125.9,15.9,125.8,15.8"/>
		<path class="st9" d="M125,15.7L125,15.7c0.2-0.1,0.1-0.1,0-0.1c-0.1,0-0.1,0-0.2,0c-0.2,0-0.4,0.1-0.5,0.3
			C124.5,15.8,124.7,15.8,125,15.7"/>
		<polygon class="st5" points="107,27.2 107,27.2 107.1,27.2 107.1,27.2 		"/>
		<polygon class="st6" points="110.2,20.4 110,20.3 110.2,20.4 		"/>
		<polygon class="st7" points="117.3,33 117.3,33 117.5,33.1 		"/>
		<polygon class="st7" points="117.8,33.3 117.5,33.1 117.8,33.3 		"/>
		<path class="st1" d="M64.9,20.5L64.9,20.5l-5.6,15.7h11.1L64.9,20.5z M60.8,12.8h8.6l14.8,38.1h-8.4l-3.3-8.7H57.2l-3.3,8.7H46
			L60.8,12.8z"/>
		<path class="st1" d="M40.8,44c-2.6,1-5.4,1.6-8.2,1.5c-8.1,0-12.9-5.8-12.9-13.6s4.9-13.8,12.7-13.8c2.9-0.1,5.7,0.6,8.2,2l0,0
			l0.7,0.4l0.8-6.4l-0.9-0.4l0,0c-2.7-1-5.6-1.5-8.6-1.6c-12.9,0-20.9,7.3-20.9,20.4s8.5,19.1,20.9,19.1c2.9-0.1,5.8-0.5,8.7-1.2
			l0.9-0.3l-0.8-6.3L40.8,44z"/>
		<path class="st1" d="M0.3,12.8h7.6v38.1H0.3V12.8z"/>
	</g>
</g>
</svg>
